<svg id="Layer_1" data-name="Layer 1" xmlns="http://www.w3.org/2000/svg" viewBox="0 0 626 626"><defs><style>.cls-1{fill:#fff;}</style></defs><title>facebook-logo_white</title><path class="cls-1" d="M620,178V616c-.44,1.57-1,3.13-1.3,4.72q-14.64,66.39-79.71,86c-4.27,1.29-8.65,2.17-13,3.23H405c-.15-1.64-.43-3.29-.43-4.93q0-112.74,0-225.47v-6H411c30.66,0,61.33-.08,92,.09,4.43,0,6-1,5.95-5.75-.23-31-.11-62-.13-93,0-1.77-.15-3.55-.26-6H405c0-16.15-.75-31.67.21-47.09.92-14.74,10.23-22.28,24.81-22.28q36,0,72,0c2.11,0,4.23-.22,6.41-.35V195.42c-1.84-.08-3.32-.21-4.79-.21q-38.75,0-77.49,0a103.78,103.78,0,0,0-61.29,19.5c-31.61,22.41-49.94,53.4-55.62,91.14-2.83,18.8-1.62,38.2-2.22,57.33-.06,1.91,0,3.82,0,6.24H230.77c-.16,1.64-.36,2.78-.36,3.91,0,31.83.07,63.66-.11,95.49,0,4.3,1.79,4.85,5.36,4.83,21.66-.11,43.33-.05,65-.06H307V710H88c-1.41-.41-2.8-.9-4.23-1.21Q17,694.37-2.76,629C-4,624.71-4.93,620.33-6,616q0-219,0-438c.59-2.23,1.24-4.44,1.76-6.68,9.95-42.76,36-70.56,77.8-83.69C78.29,86.15,83.18,85.2,88,84H526c1.25.38,2.48.86,3.75,1.13q67.46,14.27,87.13,80.36C618.1,169.6,619,173.83,620,178Z" transform="translate(6 -84)"/></svg>