<svg id="Layer_1" data-name="Layer 1" xmlns="http://www.w3.org/2000/svg" viewBox="0 0 177.07 177.71"><defs><style>.cls-1{fill:#fff;}</style></defs><title>instagram-logo_white</title><path class="cls-1" d="M270,371c-11.83,26.67-8.8,46.79,8.75,61.15a45,45,0,0,0,54.34,2.19,44.05,44.05,0,0,0,19-40.91c-.81-7.7-3.65-15-7.23-22.47,15.26,0,32.13.08,48.08,0,3,0,3,1.92,3,4q0,14.49,0,29c0,15.16,0,30.31,0,45.47-.09,20.84-14.61,35.63-35.47,35.72q-53.21.22-106.42,0c-19.67-.08-34.69-14.72-34.91-34.24-.28-25.15-.07-50.3-.12-75.45,0-2.56.1-4.54,3.58-4.52C238.24,371.08,253.87,371,270,371Z" transform="translate(-218.94 -307.59)"/><path class="cls-1" d="M219.07,365.8c.49-18.76-4-38,14.93-51.58,0,9.09,0,17.47,0,25.85,0,2.5-.33,5.06.12,7.47.28,1.5,1.53,3.66,2.73,4,2.64.66,4.19-.74,4.15-3.9-.13-11.33,0-22.65-.1-34,0-3.55,1.38-4.83,5.18-4.4,0,12.65.08,25.28-.06,37.91,0,3.31.81,5.6,4.36,4.34,1.33-.47,2.66-3.07,2.69-4.72.22-11.49.13-23,.06-34.48,0-3.12.41-5.45,5.06-3.89,0,1.63,0,3.41,0,5.2,0,10.66-.14,21.32,0,32,0,2.39-1.69,6.15,3.31,6.14,4.53,0,3.75-3.27,3.75-6,0-10.83.21-21.66-.08-32.48-.12-4.4,1.2-5.67,5.62-5.64,30,.21,60,.11,89.94.21,19.9.07,34.77,14.69,35.18,34.51.15,7.61,0,15.23,0,23.2-2.16.11-3.78.27-5.4.27-15.32,0-34.56.32-49.81.18,0,0-2.07-1.43-4.17-3.14-17.3-14.14-40.5-14.22-58-.27-2.35,1.87-4,3.11-4,3.11-15,.3-34.95.14-49.94.13ZM350,337.43c0,2.83.08,5.66,0,8.49-.16,4.57,2,6.86,6.54,6.89,5.66,0,11.32.06,17,0,4.26-.06,6.39-2.36,6.4-6.6,0-5.66,0-11.32,0-17,0-4.5-2.12-6.83-6.65-6.86-5,0-10-.09-15,0-7.06.09-8.26,1.38-8.29,8.62C349.95,333.1,350,335.27,350,337.43Z" transform="translate(-218.94 -307.59)"/><path class="cls-1" d="M342.37,397.88c-.3,19.65-15.93,34.55-35.89,34.22a34.83,34.83,0,1,1,35.89-34.22Zm-9.18.08c.1-14.7-10.71-26-25.06-26.18A25.43,25.43,0,0,0,282,397a25.74,25.74,0,0,0,25.41,26C321.48,423.09,333.1,411.8,333.19,398Z" transform="translate(-218.94 -307.59)"/></svg>