<svg id="Layer_1" data-name="Layer 1" xmlns="http://www.w3.org/2000/svg" viewBox="0 0 458.38 458.38"><defs><style>.cls-1{fill:#fff;}</style></defs><title>twitter_logo_white</title><path class="cls-1" d="M310.87,171.64C437.5,171.69,540.08,274.3,540,400.87S437.32,630,310.75,630,81.48,527.24,81.64,400.75C81.8,273.94,184.2,171.6,310.87,171.64Zm-43,282.44c-19.11,14.42-40.72,17.82-63.3,18.43a8.92,8.92,0,0,0,3,2.82c27.69,15.19,57.09,20.17,88.32,15.33,62.76-9.73,105.12-66.18,108.26-127.84.2-4,2.21-8.3,4.61-11.56,3.52-4.79,8.22-8.7,12.29-13.1a64.37,64.37,0,0,0,4.25-5.71l-.69-.88-18.54,5.29-.54-1.23,15.07-21.43L419.34,313c-4.22,1.76-8.51,3.38-12.65,5.32-8.91,4.17-17.49,5.93-25.21-2.35a7,7,0,0,0-1.7-1c-27.74-16-63.9,1.86-67.85,33.65-.69,5.52-.1,11.19-.1,17-38.68-2.72-69.11-20.42-95.11-49.67-1.78,7.58-3.83,13.76-4.61,20.09-2.05,16.53,4.91,30,16.66,41.51l-1.29,1.25-18-5c2.39,7.85,3.76,14.52,6.41,20.63,5.43,12.52,16.23,19.63,28.22,25.25l-.32,1.45H227.52C234.64,441.19,250.42,448.46,267.88,454.08Z" transform="translate(-81.64 -171.64)"/></svg>